<svg xmlns="http://www.w3.org/2000/svg" xmlns:xlink="http://www.w3.org/1999/xlink" width="1875" height="812" viewBox="0 0 1875 812">
  <defs>
    <clipPath id="clip-crimson-sky-blue-background">
      <rect width="1875" height="812"/>
    </clipPath>
  </defs>
  <g id="crimson-sky-blue-background" clip-path="url(#clip-crimson-sky-blue-background)">
    <rect width="1875" height="812" fill="#fff"/>
    <rect id="Rectangle_7" data-name="Rectangle 7" width="117.013" height="1587.867" transform="translate(134.291 -669.598) rotate(17)" fill="#dc143c"/>
    <rect id="Rectangle_15" data-name="Rectangle 15" width="117.013" height="1587.867" transform="translate(1253.293 -327.485) rotate(17)" fill="#dc143c"/>
    <rect id="Rectangle_11" data-name="Rectangle 11" width="117.013" height="1587.867" transform="translate(693.792 -498.541) rotate(17)" fill="#dc143c"/>
    <rect id="Rectangle_19" data-name="Rectangle 19" width="117.013" height="1587.867" transform="translate(1812.794 -156.428) rotate(17)" fill="#dc143c"/>
    <rect id="Rectangle_9" data-name="Rectangle 9" width="117.013" height="1587.867" transform="translate(414.042 -584.069) rotate(17)" fill="#dc143c"/>
    <rect id="Rectangle_17" data-name="Rectangle 17" width="117.013" height="1587.867" transform="translate(1533.043 -241.956) rotate(17)" fill="#dc143c"/>
    <rect id="Rectangle_13" data-name="Rectangle 13" width="117.013" height="1587.867" transform="translate(973.543 -413.013) rotate(17)" fill="#dc143c"/>
    <rect id="Rectangle_8" data-name="Rectangle 8" width="117.013" height="1587.867" transform="translate(274.167 -626.834) rotate(17)" fill="#87ceeb"/>
    <rect id="Rectangle_16" data-name="Rectangle 16" width="117.013" height="1587.867" transform="translate(1393.168 -284.72) rotate(17)" fill="#87ceeb"/>
    <rect id="Rectangle_12" data-name="Rectangle 12" width="117.013" height="1587.867" transform="translate(833.667 -455.777) rotate(17)" fill="#87ceeb"/>
    <rect id="Rectangle_20" data-name="Rectangle 20" width="117.013" height="1587.867" transform="translate(1952.669 -113.664) rotate(17)" fill="#87ceeb"/>
    <rect id="Rectangle_10" data-name="Rectangle 10" width="117.013" height="1587.867" transform="translate(553.917 -541.305) rotate(17)" fill="#87ceeb"/>
    <rect id="Rectangle_18" data-name="Rectangle 18" width="117.013" height="1587.867" transform="translate(1672.918 -199.192) rotate(17)" fill="#87ceeb"/>
    <rect id="Rectangle_14" data-name="Rectangle 14" width="117.013" height="1587.867" transform="translate(1113.418 -370.249) rotate(17)" fill="#87ceeb"/>
    <rect id="Rectangle_21" data-name="Rectangle 21" width="117.013" height="1587.867" transform="translate(2092.544 -70.9) rotate(17)" fill="#dc143c"/>
  </g>
</svg>
