<svg id="Layer_1" data-name="Layer 1" xmlns="http://www.w3.org/2000/svg" viewBox="0 0 800 800"><defs><style>.cls-1{fill:#7f8133;}</style></defs><path class="cls-1" d="M590,526.34c8.64,21.54,7.23,27.44,7.75,41.54,1.28,34.75-10.42,64-43.21,80.47-37.78,19-75.55,19.38-112.22-3.66-3.78-2.38-7.17-5.37-10.75-8.07-21.48-16.25-32.49-16.33-56.07-3.9-16.65,8.77-33.92,16.94-51.78,22.71-36.77,11.9-69.34.58-96.3-24.73C202,606.77,198,575.59,209.06,543.76c16-46,32.19-92,66.31-129.23,76.42-83.4,198.36-75.27,261,19.19C555.77,463.09,581.37,504.81,590,526.34Z"/><path class="cls-1" d="M257.15,141.2c14.39-6.43,59.34-5.24,81.09,13.78,37,32.39,48,93,25.29,136.83-24.32,47-76.46,56.89-116.32,22.05C205.67,277.54,197.92,205.77,232,163.33,240.09,153.19,242.76,147.63,257.15,141.2Z"/><path class="cls-1" d="M579.62,201.9c10.43,30.85,7.15,68.32-17.15,102.32C525,356.63,460.37,351,431.55,293.4c-19.53-39-13-91.5,15.5-124.71C488.24,120.69,552.09,133,579.62,201.9Z"/><path class="cls-1" d="M190.66,465.35c-29.33,11.43-62.62-.09-85.83-31.16-22.6-30.26-30.08-63.75-14.92-99.6C103.28,303,137,289.1,169.24,300.46,218.7,317.88,247.16,383.25,226,431,218.82,447.11,207.72,459.37,190.66,465.35Z"/><path class="cls-1" d="M655.62,465.92c-45.28,18.64-86.74-6.1-91.78-54.78-5.27-51,36.73-103.71,86-107.94A62,62,0,0,1,716.12,353C725.46,399.38,699.48,447.86,655.62,465.92Z"/></svg>