<svg id="Layer_1" data-name="Layer 1" xmlns="http://www.w3.org/2000/svg" viewBox="0 0 595.28 841.89"><path d="M313.92,395.19c11.27,3.93,22.71,10.83,29.83,22.76a362.44,362.44,0,0,1,19.91,37.69c5.63,12.57,4.41,25.42-5.2,35.84s-22.6,12.48-35.88,9.15c-5.8-1.45-11.31-5-16.29-8.54-8.05-5.71-11.07-6-20-1.59-10.48,5.26-21.18,10.78-33.5,8.11-20.79-4.51-32.16-21.39-25.36-40.62,6.6-18.65,13.94-36.91,29.32-50.6C272.94,393,292.4,388.38,313.92,395.19Z"/><path d="M289.49,357c-6.17,19.52-17.21,27.83-30.91,25.62a30.24,30.24,0,0,1-12.88-5.82c-14-10.66-18.61-33.78-10.23-49.39,10.84-20.18,34-21.57,47-2.61C290.19,336,292,348.36,289.49,357Z"/><path d="M364,362.91c-4.12,5.66-7.48,12.14-12.52,16.82-13.67,12.73-33.57,8.23-41.44-9.26-7-15.57-5.26-30.68,5.53-44.05,14.44-17.9,38.51-13.66,46.6,7.94C365.57,343.51,365.63,352.77,364,362.91Z"/><path d="M409.5,410.53c-3.46,10-9.73,17.66-19.42,22.21-18.05,8.45-35.56-3.55-34.19-23.46.92-13.19,7.25-23.33,18.57-30,8.85-5.21,18.31-6.36,27.15-.1,9,6.37,10.71,15.83,9.24,26.14A45.76,45.76,0,0,1,409.5,410.53Z"/><path d="M236.19,412.85c-5,16.07-20.18,21.87-34.7,13.25-13.18-7.81-20.34-25.48-16.29-40.2,4.37-15.93,20.22-22.56,34.53-14.46C233.64,379.31,240.91,397.62,236.19,412.85Z"/><path d="M296.2,283.35a1.34,1.34,0,0,0,2.18-.05,109,109,0,0,1,20-21.83c51.55-42.94,131-26.77,161.79,32.87,9.95,19.27,13.27,39.68,11.5,61.14-2.71,32.82-16.91,60.45-37.9,85.1-14.4,16.9-30.82,31.74-47.24,46.59-17.82,16.14-35.74,32.19-53.11,48.8a357.09,357.09,0,0,0-53.76,65.42c-.38.59-.77,1.17-1.18,1.77a1.34,1.34,0,0,1-2.2,0v0c-23.59-35.95-53.57-66.06-85.64-94.33-17.66-15.56-35.2-31.29-52.28-47.49-15.82-15-29.45-31.88-39.49-51.43a139.93,139.93,0,0,1-15.23-76c3.71-47.55,39.53-87.14,86.82-94.82,43.75-7.12,79.05,8,105.36,43.74ZM296,574.9a1.34,1.34,0,0,0,2.14,0c.46-.61.89-1.18,1.34-1.72C309,561.71,318.2,550,328.13,538.89c17-18.91,36-35.73,55-52.59,17.85-15.87,35.94-31.47,52.1-49.13,11.45-12.51,21.69-25.89,29-41.3,10.51-22.26,14.63-45.6,10.08-69.92-8.44-45.07-50.63-76.47-96.59-72.12-26.32,2.5-47.5,14.56-63.71,35.41-5.72,7.36-9.45,15.81-13.32,24.19-.71,1.53-1.43,3.06-2.21,4.71a1.35,1.35,0,0,1-2.43,0l-.29-.6c-2.58-5.49-5-11.08-7.78-16.45-18.15-34.73-55.87-53.11-94.79-46.31-38.76,6.78-69,38.59-73.19,77.73-2.62,24.48,1.94,47.85,13.14,69.84,9.13,17.93,21.63,33.41,36.15,47.1C187.85,467,207,483.9,226,501c23.7,21.25,46.42,43.43,66,68.66C293.31,571.33,294.63,573.06,296,574.9Z"/></svg>