<svg id="Layer_1" data-name="Layer 1" xmlns="http://www.w3.org/2000/svg" viewBox="0 0 595.28 841.89"><defs><style>.cls-1{fill:#fff;}</style></defs><path class="cls-1" d="M423.4,650.05a6.33,6.33,0,0,0,6,6.32c48.8,2.39,64.93-17.65,52.61-61.57-7-25.13-19.59-48.71-26.92-73.79-16.27-55.67-1.05-98.14,47.45-127.5a1.92,1.92,0,0,1,2.89,1.83c-.67,7.84-.08,14.65-3,17-44.81,35.15-38.86,79-22.59,124.78,5.85,16.46,13.32,32.43,18.11,49.18,7.35,25.73,12.89,53.19-9.77,73.82-22,20-48.72,21.68-78.88,11.56a6.26,6.26,0,0,1-4.31-5.92c0-34.71.12-70.24,0-105.76-.25-57.2-19.92-100.28-77.18-124.64-21.49-9.14-36.73-32.94-61.13-57.08a6.21,6.21,0,0,0-5.47-1.69c-17.54,3.19-44.77,7.54-72,14-11.12,2.65-20.82,14.14-21.51,25.55-2.13,35-3.4,70.24-2,105.27,1.44,35.69,10,71.26,9.6,106.81-.5,42.75-8.81,52.57-45.61,40.29a6.27,6.27,0,0,1,.61-12.06l18.55-4.15a7.54,7.54,0,0,0,5.74-7.21c.74-30.35,6.52-63.24-1.57-92.29-17.57-63.14-13.24-123.34,6.56-183.72,7.81-23.83,7.61-38.4-23.47-36.57-24.15,1.42-40.68-11.44-44.72-34.66-3.91-22.43-2.31-44.92,28.21-49.48,2.87-.43,5.61-3.11,8-5.21,15.4-13.57,38.8-34.42,38.8-34.42s11.57-9.72,22.79-6.31h0c1.34-9,2.68-18,4.15-27.81a12.32,12.32,0,0,1,15.52-10c23.71,6.53,37.89,24.39,50.45,43.56,30.45,46.5,39.93,99.17,39.43,153.41-.27,29.19,10.18,48.91,37.07,58.68C403,444.71,423.31,497.4,423.4,562.75,423.43,591.3,423.41,619.85,423.4,650.05Zm-240-286a6.3,6.3,0,0,0,7.55,6.15c17.36-3.53,33.13-7.69,49.06-8.46,33.9-1.64,47.5-15.64,36.31-49.43-1.68-5.06-.74-10.93-1.95-16.21-8.13-35.5-19.37-69.26-46.72-97.53a10.75,10.75,0,0,0-18.33,5.89l-1.24,8.08a12.06,12.06,0,0,1-11.35,10.24c-25.46,1.19-51,2.57-55.39,38-.3,2.42-6.93,5.8-10.59,5.77-17.47-.15-26.17,9.78-20.45,24.47,3.78,9.7,16,20.87,26,22.6C180.77,321.29,183.28,320.72,183.39,364Z"/><path class="cls-1" d="M292.15,535.37c-42.78,20-56.72,73.54-26.23,109.85,6.44,7.67,22.88,8.22,35,9.58,41.44,4.63,83.92-.08,124.29,14.12a.61.61,0,0,1-.21,1.19H200.31a.6.6,0,0,1-.23-1.16l44-18.31a.62.62,0,0,0,.35-.71c-24.52-96,2.17-136,88.75-136.29a.61.61,0,0,1,.23,1.17C319.13,520.58,306.06,528.86,292.15,535.37Z"/></svg>