<svg id="Layer_1" data-name="Layer 1" xmlns="http://www.w3.org/2000/svg" viewBox="0 0 595.28 841.89"><defs><style>.cls-1{fill:#fff;}</style></defs><path class="cls-1" d="M539.49,547.06c17.82,37.73,20.89,76.49-6,111.81-22.33,29.37-71.58,39.73-120.85,28a9.89,9.89,0,0,1-6.41-4.69,3.12,3.12,0,0,1-.49-1.79C416.7,573.75,367.07,489.94,303.42,412c-6.06-7.43-20-12.73-29.78-12-34.84,2.5-69.47,8-110.49,13.22,0,32.77-1.61,66,.39,99.07,2.69,44.5,12.2,88.91,11.34,133.21-.81,41.91-11.84,50.73-49.64,36.54a4.92,4.92,0,0,1,.51-9.39l29.55-7.22c0-33.9,7.12-72.06-1.6-106.17-14.56-57-13.66-112.25-4.69-168.86,8.47-53.46,6-56.41-48.66-63.7C59.22,321.15,39.57,300.41,42.23,266c1.44-18.61,8.19-30.44,29.29-31.95,25-1.78,45.7-8,62-33.18,18.85-29.17,88.59-29.23,125.21-5,38.19,25.31,55.82,63.61,62.59,107.23,1.36,8.81-1.11,22.1-7.08,27.44-23.75,21.25-11.36,42.21.6,62.31a572.55,572.55,0,0,0,38.58,56.4c44.73,58.16,72.36,122.21,68.55,196.88-1.16,22.54,8.45,28.49,28.87,27.85,54.61-1.71,85.79-29,82.88-76.71-2.39-39.26-29.2-72.7-66.52-85.11-12.6-4.19-25.11-8.64-37.72-12.81a1.48,1.48,0,0,1,.15-2.86C474.36,486.54,520.52,506.91,539.49,547.06ZM193.6,245.62l15.55-5.1c2.75,5.68,6.43,11.11,8.08,17.1,5.19,18.85,7.5,38.79,14.88,56.68,10.27,24.88,34.42,25,52.72,15.34,9.49-5,18.08-29,14-39.1-10.77-26.5-25.23-53.39-44.71-74C229.94,191,161.51,187.93,149,211.86,132.84,243,108.12,246,80.3,251.33,58,255.57,52,279.29,69.84,294.84c9,7.88,23,11.7,35.4,13.89,65.28,11.58,65.38,11.27,63.56,77,0,1.57,2.3,3.2,5.24,7.05l111.24-14L287.43,367c-8.95-4.71-17.88-9.48-26.87-14.12-13-6.69-32.72-10.07-37.78-20.55C209.62,305.07,202.89,274.73,193.6,245.62Z"/><path class="cls-1" d="M358.35,685.87H178.88l-.32-2.9,71.88-16.87c-21-55.78-20.71-108.78,29-150.79,10.12-8.56,22.7-14.21,34.45-20.83a3.87,3.87,0,0,1,5.27,1.41l2.24,3.88a5.51,5.51,0,0,1-1.46,7.14q-10.11,7.6-20.2,15.26c-42.27,32.19-53.92,75.17-35.63,125,6.2,16.9,15.36,24.51,33.62,23.13,16.28-1.24,32.79-.75,49.1.34,5.21.34,10.2,3.89,15.26,6.47a2.33,2.33,0,0,1,1.19,2.79l-1,3.17A4.08,4.08,0,0,1,358.35,685.87Z"/></svg>